<?xml version="1.0" encoding="utf-8"?>
<!-- Generator: Adobe Illustrator 18.0.0, SVG Export Plug-In . SVG Version: 6.00 Build 0)  -->
<!DOCTYPE svg PUBLIC "-//W3C//DTD SVG 1.1//EN" "http://www.w3.org/Graphics/SVG/1.1/DTD/svg11.dtd">
<svg version="1.1" id="Capa_1" xmlns="http://www.w3.org/2000/svg" xmlns:xlink="http://www.w3.org/1999/xlink" x="0px" y="0px"
	 viewBox="0 0 100 88" enable-background="new 0 0 100 88" xml:space="preserve">
<g>
	<path fill="#FFFFFF" d="M100,88c0,0-0.2-18.9-1.4-20.9c-1.7-2.9-5.7-4.9-13.2-8c-7.4-3.1-9.8-5.7-9.8-11.3c0-3.4,2.3-2.3,3.3-8.4
		c0.4-2.6,2.4,0,2.8-5.9c0-2.3-1.1-2.9-1.1-2.9s0.6-3.4,0.8-6.1c0.3-3.3-1.7-11.8-12-11.8c-10.3,0-12.2,8.5-12,11.8
		c0.2,2.6,0.8,6.1,0.8,6.1s-1.1,0.6-1.1,2.9c0.4,5.8,2.4,3.3,2.8,5.9c1,6.2,3.3,5.1,3.3,8.4c0,3.8-1.1,6.2-4.1,8.4
		c16.2,8.1,18.4,9.8,18.4,17V88H100z M51.1,61.9c-9.9-4.1-13.1-7.6-13.1-15.1c0-4.5,3-3,4.3-11.2c0.5-3.4,3.2-0.1,3.7-7.8
		c0-3.1-1.5-3.9-1.5-3.9s0.7-4.6,1-8.1C46.1,11.4,43.5,0,29.8,0C16,0,13.5,11.4,13.8,15.8c0.3,3.5,1,8.1,1,8.1s-1.5,0.8-1.5,3.9
		c0.5,7.8,3.2,4.4,3.7,7.8c1.3,8.2,4.3,6.7,4.3,11.2c0,7.5-3.2,11-13.1,15.1c-3,1.3-8.4,3.2-8.4,7.9V88h69.5c0,0,0-10.8,0-13.7
		C69.5,70.1,61,66,51.1,61.9z"/>
</g>
</svg>
